<svg width="54" height="54" viewBox="0 0 54 54" fill="none" xmlns="http://www.w3.org/2000/svg">
<path d="M27 54C12.1224 54 0 41.8775 0 27C0 12.1224 12.1224 0 27 0C41.8775 0 54 12.1224 54 27C54 41.8775 41.8775 54 27 54Z" fill="#445689"/>
<path d="M41.036 24.0707C39.006 22.0117 36.5119 21.1706 33.6988 21.1416C33.7568 21.1996 33.8438 21.2576 33.9018 21.2866C34.8588 21.8666 35.7868 22.5047 36.5119 23.3747C37.7299 24.8248 38.1069 26.4488 37.4399 28.2469C36.9179 29.7259 35.9318 30.886 34.7428 31.988C34.7138 31.582 34.6848 31.234 34.6268 30.915C34.3368 28.5079 33.6118 26.2748 32.0167 24.3897C31.4077 23.6647 30.6537 23.0847 29.8416 22.5917C28.9716 22.0697 28.0146 22.0987 27.0865 22.2437C24.5344 22.6207 22.5333 24.0127 20.8803 25.8978C20.3583 26.5068 19.8652 27.1448 19.3432 27.8409C19.2272 27.4059 19.1112 26.9998 19.0242 26.5648C18.7632 25.4338 18.6762 24.2737 18.9372 23.1427C19.3722 21.1416 20.6193 19.9236 22.5333 19.4306C23.5484 19.1696 24.6214 19.0826 25.6365 18.9085C24.5344 18.2705 23.2874 17.8355 21.9533 17.6325C20.6193 17.4005 19.2852 17.4875 17.9512 17.8645C17.9802 17.7485 18.0092 17.6615 18.0382 17.6035C19.0242 15.2544 21.3443 13.9784 23.8674 14.4714C24.6504 14.6164 25.4335 14.8774 26.2455 15.1094C26.2455 15.0514 26.2455 14.9354 26.2165 14.8194C25.8975 13.6884 25.1434 12.8763 24.3314 12.0933C24.0994 11.8613 23.8384 11.6583 23.5484 11.4263C24.1574 11.2233 24.7374 11.1653 25.3465 11.1943C27.1445 11.2813 28.5366 12.1223 29.5516 13.5433C30.0736 14.2684 30.4796 15.0514 30.9437 15.8344C31.3497 15.5734 31.7847 15.2544 32.2487 14.9934C33.4958 14.2974 34.8008 13.8624 36.2219 14.0364C37.4689 14.1814 38.5419 14.7324 39.412 15.6314C38.6579 15.8344 37.8749 16.0084 37.1499 16.2404C36.3958 16.5015 35.7288 16.8785 35.2068 17.5165C35.7868 17.6325 36.3088 17.7195 36.8599 17.8645C38.3679 18.2705 39.673 18.9955 40.485 20.3876C41.065 21.5476 41.239 22.7367 41.036 24.0707Z" fill="#D7EFA3"/>
<path d="M29.0008 24.0126C26.4777 27.9858 24.9697 32.2489 24.3606 36.8891C24.9116 37.0051 25.4337 37.1211 25.9267 37.2661C26.9997 37.5851 27.9568 38.0781 28.6238 39.0352C29.0298 39.6152 29.2618 40.3692 29.2038 41.0653C24.5636 41.0653 19.9235 41.0653 15.1963 41.0653C15.2833 40.6302 15.3413 40.1952 15.4863 39.7602C15.7763 38.8902 16.4143 38.2811 17.1974 37.8171C18.2704 37.2081 19.4304 36.9761 20.6195 36.8601C20.9095 36.8311 20.9965 36.7151 21.0545 36.4541C21.9245 32.1909 23.6356 28.2758 26.0137 24.6216C26.2747 24.2156 26.5647 23.9546 27.0577 23.9256C27.5507 23.8966 28.0438 23.8386 28.5368 23.8386C28.6818 23.8676 28.8268 23.9546 29.0008 24.0126Z" fill="#7B99D0"/>
</svg>
